<svg xmlns="http://www.w3.org/2000/svg" viewBox="0 0 203 200" width="203" height="200">
	<style>
		tspan { white-space:pre }
		.shp0 { fill: none;stroke: #1e82c8;stroke-width: 0.45 } 
		.shp1 { fill: #ffffff } 
		.shp2 { fill: #ffffff;stroke: #1e82c8;stroke-width: 0.45 } 
	</style>
	<path id="Path 3" class="shp1" d="M186.1 77.99C186.97 83.17 187.32 88.91 187.32 94.35C187.32 142.88 148.79 182.34 100.79 183.53C100.79 183.53 127.23 171.65 156.01 133.61C184.01 96.48 186.1 77.99 186.1 77.99Z" />
	<path id="Path 4" fill-rule="evenodd" class="shp1" d="M186.53 2.72C195.66 10.14 195.66 25.59 183.66 57.53C168.45 97.88 132.53 137.14 114.52 155.69C94.26 176.53 55.04 204.34 38.86 194.54C23.98 185.47 34.51 158.28 35.47 155.4C43.64 130.76 65.38 98.87 68.43 77.42C71.64 54.13 64.08 48.26 57.82 45C53.99 43 35.38 37.22 20.16 68.31C4.94 99.38 18.68 133.17 18.68 133.17C13.03 121.44 9.9 108.27 9.9 94.35C9.9 45.08 49.56 5.13 98.61 5.13C113.82 5.13 128.26 9.03 140.79 15.86C140.79 15.86 173.49 -7.78 186.53 2.72ZM177.58 11.87C169.23 2.77 146.27 19.09 146.27 19.09C156.79 25.82 165.75 34.77 172.62 45.23C172.62 45.23 185.4 20.46 177.58 11.87ZM18.86" />
</svg>